<svg width="177" height="172" viewBox="0 0 177 172" fill="none" xmlns="http://www.w3.org/2000/svg">
<path opacity="0.2" d="M139.021 102.191L138.623 105.106C131.966 107.748 124.747 108.608 117.659 107.604C110.998 106.702 107.677 104.105 108.738 100.445C110.239 95.2274 114.786 95.5664 118.584 96.4096C125.462 97.9493 132.196 100.219 138.992 102.128L139.021 102.191ZM154.354 97.3141C147.602 94.2371 141.476 90.6108 134.887 88.6043C127.606 86.2794 120.043 84.9978 112.417 84.7966C108.508 84.7349 104.729 86.2028 101.864 88.8959C98.9985 91.589 97.2673 95.3006 97.0293 99.2609C95.9905 107.958 100.754 114.749 109.771 117.4C121.395 120.868 132.895 119.294 144.174 115.81C146.96 114.936 149.651 113.851 152.226 112.897C167.691 123.333 168.312 129.9 157.75 170.375C163.894 173.33 167.112 169.448 169.868 164.942C179.076 149.86 177.995 124.411 167.63 110.205C166.57 108.765 165.457 107.375 164.159 105.69C165.696 103.566 166.896 101.855 168.038 100.019C176.189 86.6826 175.719 71.4522 165.197 59.9199C158.893 53.2514 151.65 47.5686 143.705 43.0579C130.268 35.189 115.222 31.2624 99.9618 29.1703C81.5133 26.6368 62.9274 25.0093 44.4247 22.9602C41.754 22.6075 38.8908 22.2177 35.2763 21.7216C39.2915 17.6009 43.0874 13.2658 46.648 8.73471C47.8255 7.0856 48.0643 2.56257 47.1334 1.95413C45.0806 0.648501 42.014 0.966105 39.3581 0.810416C38.7582 0.760572 38.0569 1.42121 37.503 1.91069C27.8015 8.40235 18.1974 15.0522 8.37911 21.3437C-0.308286 26.9259 -1.15542 29.5162 4.29726 38.2519C10.6171 47.886 19.4157 55.5823 29.7353 60.5026C33.0399 62.2406 36.7168 63.4213 39.4008 58.2094C35.6727 48.3073 24.3219 45.2723 17.7502 35.7362C21.788 35.6766 24.5174 35.3898 27.2117 35.6294C50.4814 37.7865 73.8318 39.2429 96.9774 42.5546C109.597 44.6074 121.959 48.0649 133.84 52.8648C141.286 55.9181 148.096 60.3791 153.907 66.01C163.578 75.1366 163.371 85.8152 154.194 97.2366L154.354 97.3141Z" fill="white"/>
</svg>
