<svg width="500" height="369" viewBox="0 0 500 369" fill="none" xmlns="http://www.w3.org/2000/svg">
<path d="M449.9 343.49H416.78V343.74H449.9V343.49Z" fill="#E0E0E0"/>
<path d="M331.22 346.21H322.53V346.46H331.22V346.21Z" fill="#E0E0E0"/>
<path d="M415.78 334.21H396.59V334.46H415.78V334.21Z" fill="#E0E0E0"/>
<path d="M95.65 335.89H52.46V336.14H95.65V335.89Z" fill="#E0E0E0"/>
<path d="M110.89 335.89H104.56V336.14H110.89V335.89Z" fill="#E0E0E0"/>
<path d="M225.15 340.11H131.47V340.36H225.15V340.11Z" fill="#E0E0E0"/>
<path d="M237 282.8H43.92C42.4056 282.8 40.9532 282.198 39.8824 281.128C38.8115 280.057 38.21 278.604 38.21 277.09V5.66C38.2231 4.15429 38.8305 2.71475 39.9 1.65471C40.9694 0.594662 42.4142 -5.77259e-05 43.92 4.20255e-09H237C238.514 4.20256e-09 239.967 0.601588 241.038 1.67242C242.108 2.74325 242.71 4.19561 242.71 5.71V277.09C242.71 278.604 242.108 280.057 241.038 281.128C239.967 282.198 238.514 282.8 237 282.8ZM43.92 0.200001C42.4727 0.202644 41.0855 0.77874 40.0621 1.80212C39.0387 2.82549 38.4626 4.21273 38.46 5.66V277.09C38.4626 278.537 39.0387 279.924 40.0621 280.948C41.0855 281.971 42.4727 282.547 43.92 282.55H237C238.447 282.547 239.834 281.971 240.858 280.948C241.881 279.924 242.457 278.537 242.46 277.09V5.66C242.457 4.21273 241.881 2.82549 240.858 1.80212C239.834 0.77874 238.447 0.202644 237 0.200001H43.92Z" fill="#787878"/>
<path d="M453.31 282.8H260.21C258.696 282.797 257.246 282.195 256.175 281.125C255.105 280.054 254.503 278.604 254.5 277.09V5.66C254.516 4.15511 255.124 2.71708 256.193 1.65759C257.262 0.598109 258.705 0.00254829 260.21 0H453.31C454.812 0.0052045 456.252 0.602249 457.317 1.66173C458.382 2.72121 458.987 4.15775 459 5.66V277.09C459 278.601 458.401 280.05 457.335 281.121C456.268 282.191 454.821 282.795 453.31 282.8ZM260.21 0.200001C258.763 0.202644 257.375 0.77874 256.352 1.80212C255.329 2.82549 254.753 4.21273 254.75 5.66V277.09C254.753 278.537 255.329 279.924 256.352 280.948C257.375 281.971 258.763 282.547 260.21 282.55H453.31C454.757 282.547 456.145 281.971 457.168 280.948C458.191 279.924 458.767 278.537 458.77 277.09V5.66C458.767 4.21273 458.191 2.82549 457.168 1.80212C456.145 0.77874 454.757 0.202644 453.31 0.200001H260.21Z" fill="#787878"/>
<path d="M500 327.4H0V327.65H500V327.4Z" fill="#E0E0E0"/>
<path d="M377.83 160.16H436.12C437.976 160.156 439.803 159.69 441.434 158.805C443.066 157.919 444.451 156.642 445.466 155.087C446.481 153.533 447.093 151.75 447.247 149.9C447.402 148.05 447.093 146.191 446.35 144.49C442.48 135.6 434.25 130.78 426.81 137.49C415.62 147.49 416.15 128.06 402.76 130.79C391.05 133.18 392.66 144.71 385.49 147.08C378.32 149.45 368.42 157.51 377.83 160.16Z" fill="#FFFBFB"/>
<path d="M285.48 55.4H328C329.353 55.3993 330.684 55.0627 331.875 54.4205C333.065 53.7782 334.078 52.8505 334.821 51.7204C335.565 50.5903 336.016 49.2933 336.134 47.9458C336.253 46.5984 336.035 45.2425 335.5 44C332.67 37.51 326.66 34 321.24 38.86C313.07 46.2 313.45 31.98 303.68 33.98C295.13 35.72 296.31 44.14 291.07 45.86C285.83 47.58 278.62 53.46 285.48 55.4Z" fill="#F8CDCB"/>
<path d="M369.68 327.52H362.68V103.67C362.685 97.645 365.08 91.8681 369.34 87.6068C373.599 83.3456 379.375 80.9479 385.4 80.94H391.59V87.94H385.4C381.231 87.9453 377.234 89.6046 374.287 92.5537C371.339 95.5028 369.683 99.5007 369.68 103.67V327.52Z" fill="#D7D7D7"/>
<path d="M418.13 45H391.59V119.98H418.13V45Z" fill="#E0E0E0"/>
<path d="M391.59 120H418.13V120.14C418.13 121.511 417.585 122.826 416.616 123.796C415.646 124.765 414.331 125.31 412.96 125.31H396.76C395.389 125.31 394.074 124.765 393.104 123.796C392.135 122.826 391.59 121.511 391.59 120.14V120Z" fill="#D5CECE"/>
<path d="M404.86 68.73C409.405 68.73 413.09 65.0453 413.09 60.5C413.09 55.9547 409.405 52.27 404.86 52.27C400.315 52.27 396.63 55.9547 396.63 60.5C396.63 65.0453 400.315 68.73 404.86 68.73Z" fill="#D7D7D7"/>
<path d="M404.86 66.73C409.405 66.73 413.09 63.0453 413.09 58.5C413.09 53.9547 409.405 50.27 404.86 50.27C400.315 50.27 396.63 53.9547 396.63 58.5C396.63 63.0453 400.315 66.73 404.86 66.73Z" fill="#FFFBFB"/>
<path d="M404.86 91.23C409.405 91.23 413.09 87.5453 413.09 83C413.09 78.4547 409.405 74.77 404.86 74.77C400.315 74.77 396.63 78.4547 396.63 83C396.63 87.5453 400.315 91.23 404.86 91.23Z" fill="#D7D7D7"/>
<path d="M404.86 89.23C409.405 89.23 413.09 85.5453 413.09 81C413.09 76.4547 409.405 72.77 404.86 72.77C400.315 72.77 396.63 76.4547 396.63 81C396.63 85.5453 400.315 89.23 404.86 89.23Z" fill="#FFFBFB"/>
<path d="M404.86 113.73C409.405 113.73 413.09 110.045 413.09 105.5C413.09 100.955 409.405 97.27 404.86 97.27C400.315 97.27 396.63 100.955 396.63 105.5C396.63 110.045 400.315 113.73 404.86 113.73Z" fill="#D7D7D7"/>
<path d="M404.86 111.73C409.405 111.73 413.09 108.045 413.09 103.5C413.09 98.9547 409.405 95.27 404.86 95.27C400.315 95.27 396.63 98.9547 396.63 103.5C396.63 108.045 400.315 111.73 404.86 111.73Z" fill="#FFFBFB"/>
<path d="M436.91 262.05H390.72V282.21H436.91V262.05Z" fill="#E0E0E0"/>
<path d="M393.93 259.26H387.5V285H393.93V259.26Z" fill="#F5F5F5"/>
<path d="M440.12 259.26H433.69V285H440.12V259.26Z" fill="#F5F5F5"/>
<path d="M386.36 268.92H390.72V275.35H386.36C385.808 275.35 385.279 275.131 384.889 274.741C384.499 274.351 384.28 273.822 384.28 273.27V271C384.28 270.448 384.499 269.919 384.889 269.529C385.279 269.139 385.808 268.92 386.36 268.92Z" fill="#F5F5F5"/>
<path d="M441.25 275.35H436.89V268.92H441.25C441.802 268.92 442.331 269.139 442.721 269.529C443.111 269.919 443.33 270.448 443.33 271V273.27C443.33 273.822 443.111 274.351 442.721 274.741C442.331 275.131 441.802 275.35 441.25 275.35Z" fill="#F5F5F5"/>
<path d="M426.22 319H401.4V249.3C401.4 247.67 401.721 246.057 402.345 244.551C402.968 243.045 403.882 241.677 405.035 240.525C406.187 239.372 407.555 238.458 409.061 237.835C410.566 237.211 412.18 236.89 413.81 236.89C415.44 236.889 417.054 237.209 418.561 237.832C420.067 238.455 421.435 239.369 422.588 240.522C423.741 241.675 424.655 243.043 425.278 244.549C425.901 246.056 426.221 247.67 426.22 249.3V319Z" fill="#F5F5F5"/>
<path d="M403.07 314.81H424.56C425.37 314.811 426.172 314.973 426.92 315.285C427.667 315.597 428.346 316.054 428.916 316.629C429.487 317.204 429.938 317.886 430.244 318.637C430.55 319.387 430.705 320.19 430.7 321V327.57H396.92V321C396.915 320.189 397.07 319.385 397.377 318.634C397.683 317.883 398.136 317.201 398.707 316.625C399.279 316.05 399.958 315.594 400.707 315.282C401.456 314.97 402.259 314.81 403.07 314.81Z" fill="#E0E0E0"/>
<path d="M413.81 282.71C419.675 282.71 424.43 277.955 424.43 272.09C424.43 266.225 419.675 261.47 413.81 261.47C407.945 261.47 403.19 266.225 403.19 272.09C403.19 277.955 407.945 282.71 413.81 282.71Z" fill="#FFFBFB"/>
<path d="M416.34 272.09C416.342 272.591 416.195 273.081 415.918 273.498C415.642 273.916 415.247 274.242 414.785 274.435C414.323 274.628 413.814 274.679 413.323 274.583C412.831 274.486 412.379 274.246 412.025 273.893C411.67 273.539 411.428 273.088 411.329 272.597C411.231 272.106 411.28 271.597 411.472 271.134C411.663 270.671 411.987 270.276 412.403 269.997C412.82 269.719 413.309 269.57 413.81 269.57C414.479 269.57 415.121 269.835 415.595 270.307C416.07 270.78 416.337 271.421 416.34 272.09Z" fill="#E0E0E0"/>
<path d="M396.92 252.83C396.92 251.976 397.259 251.157 397.863 250.553C398.467 249.949 399.286 249.61 400.14 249.61H427.49C428.342 249.613 429.159 249.953 429.76 250.557C430.362 251.16 430.7 251.978 430.7 252.83C430.7 253.682 430.362 254.5 429.76 255.103C429.159 255.707 428.342 256.047 427.49 256.05H400.14C399.286 256.05 398.467 255.711 397.863 255.107C397.259 254.503 396.92 253.684 396.92 252.83Z" fill="#D7D7D7"/>
<path d="M408.41 288.49C409.262 288.49 410.08 288.828 410.683 289.43C411.287 290.031 411.627 290.848 411.63 291.7V308.33C411.63 308.753 411.547 309.172 411.385 309.562C411.223 309.953 410.986 310.308 410.687 310.607C410.388 310.906 410.033 311.143 409.642 311.305C409.252 311.467 408.833 311.55 408.41 311.55C407.558 311.547 406.741 311.207 406.14 310.603C405.538 310 405.2 309.182 405.2 308.33V291.7C405.2 290.849 405.538 290.032 406.14 289.43C406.742 288.828 407.559 288.49 408.41 288.49Z" fill="#E0E0E0"/>
<path d="M419.21 288.49C420.062 288.49 420.88 288.828 421.483 289.43C422.087 290.031 422.427 290.848 422.43 291.7V308.33C422.43 308.753 422.347 309.172 422.185 309.562C422.023 309.953 421.786 310.308 421.487 310.607C421.188 310.906 420.833 311.143 420.442 311.305C420.052 311.467 419.633 311.55 419.21 311.55C418.358 311.547 417.541 311.207 416.94 310.603C416.338 310 416 309.182 416 308.33V291.7C416 290.849 416.338 290.032 416.94 289.43C417.542 288.828 418.359 288.49 419.21 288.49Z" fill="#E0E0E0"/>
<path d="M72.0501 327.67H69.5901C69.419 327.67 69.2497 327.636 69.0922 327.569C68.9348 327.502 68.7925 327.404 68.6739 327.281C68.5553 327.157 68.4628 327.011 68.402 326.851C68.3412 326.691 68.3133 326.521 68.3201 326.35L71.0001 265.92H77.3001L73.3001 326.49C73.2775 326.808 73.1366 327.105 72.9051 327.324C72.6736 327.542 72.3684 327.666 72.0501 327.67Z" fill="#D7D7D7"/>
<path d="M82.3801 327.67H79.9201C79.7495 327.67 79.5806 327.636 79.4237 327.569C79.2667 327.502 79.1251 327.403 79.0073 327.28C78.8894 327.157 78.7979 327.01 78.7382 326.851C78.6786 326.691 78.652 326.52 78.6601 326.35L81.3101 265.92H87.6301L83.6301 326.49C83.6099 326.808 83.4696 327.107 83.2376 327.326C83.0056 327.545 82.6991 327.668 82.3801 327.67Z" fill="#D7D7D7"/>
<path d="M111.08 327.67H113.54C113.711 327.67 113.88 327.636 114.038 327.569C114.195 327.502 114.338 327.404 114.456 327.281C114.575 327.157 114.667 327.011 114.728 326.851C114.789 326.691 114.817 326.521 114.81 326.35L112.15 265.92H105.83L109.83 326.49C109.85 326.808 109.991 327.107 110.223 327.326C110.455 327.545 110.761 327.668 111.08 327.67Z" fill="#D7D7D7"/>
<path d="M121.26 327.67H123.72C123.891 327.67 124.06 327.636 124.218 327.569C124.375 327.502 124.518 327.404 124.636 327.281C124.755 327.157 124.847 327.011 124.908 326.851C124.969 326.691 124.997 326.521 124.99 326.35L122.34 265.92H116L120 326.49C120.02 326.81 120.162 327.11 120.396 327.33C120.63 327.549 120.939 327.671 121.26 327.67Z" fill="#D7D7D7"/>
<path d="M87.9 230.37H82.54V258.69H87.9V230.37Z" fill="#D7D7D7"/>
<path d="M111.6 230.37H106.24V258.69H111.6V230.37Z" fill="#D7D7D7"/>
<path d="M129.75 264.73C129.75 270.99 115.27 270.4 97.4101 270.4C79.5501 270.4 65.0601 270.99 65.0601 264.73C65.0601 258.47 79.5401 253.39 97.4101 253.39C115.28 253.39 129.75 258.46 129.75 264.73Z" fill="#F5F5F5"/>
<path d="M112.79 233.45H81.9999C79.6547 233.45 77.3958 232.565 75.6739 230.973C73.952 229.381 72.8936 227.198 72.7099 224.86L71.7099 212.58C71.6165 211.303 71.7873 210.02 72.2117 208.811C72.6362 207.603 73.3052 206.495 74.1769 205.557C75.0486 204.618 76.1044 203.87 77.2783 203.358C78.4522 202.845 79.7191 202.581 80.9999 202.58H113.69C114.971 202.579 116.239 202.843 117.413 203.355C118.588 203.866 119.644 204.615 120.516 205.553C121.388 206.492 122.057 207.601 122.481 208.81C122.905 210.019 123.075 211.302 122.98 212.58L121.98 224.86C121.8 227.182 120.756 229.352 119.055 230.942C117.354 232.532 115.118 233.427 112.79 233.45Z" fill="#F5F5F5"/>
<path d="M104.86 117.12H68.53V145.76H104.86V117.12Z" fill="#D7D7D7"/>
<path d="M68.5301 117.12H66.5701V145.76H68.5301V117.12Z" fill="#BDACAC"/>
<path d="M101.15 120.04H72.23V142.84H101.15V120.04Z" fill="#FFFBFB"/>
<path d="M98.7801 121.92H74.6201V140.97H98.7801V121.92Z" fill="#E0E0E0"/>
<path d="M152.34 70.64H112.35V121.35H152.34V70.64Z" fill="#E0E0E0"/>
<path d="M112.35 70.64H110.44V121.35H112.35V70.64Z" fill="#BDACAC"/>
<path d="M148.26 75.81H116.43V116.18H148.26V75.81Z" fill="#F5F5F5"/>
<path d="M145.64 79.14H119.05V112.87H145.64V79.14Z" fill="#FFFBFB"/>
<path d="M127.08 91C127.08 91 131.78 97.65 134.2 97.54C136.41 97.45 140.2 91 140.2 91C140.2 91 135.5 84.35 133.08 84.46C130.84 84.59 127.08 91 127.08 91Z" fill="#E0E0E0"/>
<path d="M139.38 105.76C140.77 103.08 133.51 97.45 130.49 97.58C127.72 97.7 121.95 103.21 123.03 105.76C124.61 109.53 137.5 109.39 139.38 105.76Z" fill="#D7D7D7"/>
<path d="M79.6501 102.01C89.6188 102.01 97.7001 90.741 97.7001 76.84C97.7001 62.939 89.6188 51.67 79.6501 51.67C69.6814 51.67 61.6001 62.939 61.6001 76.84C61.6001 90.741 69.6814 102.01 79.6501 102.01Z" fill="#BDACAC"/>
<path d="M81.8 102.01C91.7687 102.01 99.85 90.741 99.85 76.84C99.85 62.939 91.7687 51.67 81.8 51.67C71.8313 51.67 63.75 62.939 63.75 76.84C63.75 90.741 71.8313 102.01 81.8 102.01Z" fill="#E0E0E0"/>
<path d="M81.7999 98.28C90.2941 98.28 97.1799 88.681 97.1799 76.84C97.1799 64.999 90.2941 55.4 81.7999 55.4C73.3058 55.4 66.4199 64.999 66.4199 76.84C66.4199 88.681 73.3058 98.28 81.7999 98.28Z" fill="#D5CECE"/>
<path d="M81.8001 96C89.3885 96 95.5401 87.4218 95.5401 76.84C95.5401 66.2582 89.3885 57.68 81.8001 57.68C74.2117 57.68 68.0601 66.2582 68.0601 76.84C68.0601 87.4218 74.2117 96 81.8001 96Z" fill="#FFFBFB"/>
<path d="M86.1099 87.25C87.5415 85.8824 88.6612 84.2222 89.3929 82.3826C90.1246 80.543 90.4511 78.5672 90.3499 76.59C90.3499 76.59 84.6799 75.92 84.8499 85.42C84.8499 85.42 78.4599 78.79 80.3499 74.59C83.3499 68.02 83.3499 68.02 81.2099 63.92C81.2099 63.92 75.6399 66.17 78.2099 73.75C78.2608 75.7262 78.5598 77.6883 79.0999 79.59C79.0999 79.59 73.4899 74.21 71.6799 77.73C71.6799 77.73 74.6799 83.42 79.0999 81.06C79.0699 81.06 83.9999 89.77 86.1099 87.25Z" fill="#E0E0E0"/>
<path d="M245.18 368.71C352.263 368.71 439.07 363.642 439.07 357.39C439.07 351.138 352.263 346.07 245.18 346.07C138.098 346.07 51.29 351.138 51.29 357.39C51.29 363.642 138.098 368.71 245.18 368.71Z" fill="#F5F5F5"/>
<path d="M321.78 140.61C319.09 137.81 317.18 132.61 316.25 129.26L312 139.4C312.683 140.189 313.179 141.123 313.449 142.131C313.719 143.139 313.757 144.195 313.56 145.22C313.56 145.31 313.41 147.01 310.56 148.75C310.56 148.75 311.07 159.01 317.18 157.56C323.29 156.11 326.61 143.93 326.61 143.93L327.05 140.48C327.05 140.48 324.27 142.82 321.78 140.61Z" fill="#FFC3BD"/>
<path opacity="0.1" d="M313.07 136.92L312.07 139.4C312.87 140.359 313.413 141.504 313.65 142.73C316.45 139.43 316.76 134.09 316.76 134.09L313.07 136.92Z" fill="black"/>
<path d="M268.71 186.27C268.71 186.27 285.2 186.94 292.52 184.94C299.84 182.94 306.06 170.13 306.06 170.13L297.71 165.52L289.41 177.87L268.73 181.18L262.79 177C262.79 177 250.79 174.44 250.79 176C250.79 177.56 256.98 178.82 256.98 178.82C256.98 178.82 257.35 186.2 259.89 186.43C262.43 186.66 268.71 186.27 268.71 186.27Z" fill="#FFC3BD"/>
<path d="M309.07 151C309.07 151 301.93 152 297.26 160.65C292.59 169.3 296.58 169.65 300.53 172.09C304.48 174.53 306.46 175.09 308.28 169.75C310.1 164.41 313.69 150.45 309.07 151Z" fill="#FF6F69"/>
<path opacity="0.1" d="M309.05 167.31L306.4 161.91L301.95 161.57C301.735 165.39 301.812 169.221 302.18 173.03C305.07 174.54 306.74 174.24 308.28 169.73C308.51 169.05 308.78 168.23 309.05 167.31Z" fill="black"/>
<path d="M294.83 116.54C294.83 116.54 289.63 118.38 293.07 123.67C296.51 128.96 289.57 132.56 301.22 134.02C312.87 135.48 301.63 114.41 301.63 114.41L294.83 116.54Z" fill="#263238"/>
<path opacity="0.3" d="M294.83 116.54C294.83 116.54 289.63 118.38 293.07 123.67C296.51 128.96 289.57 132.56 301.22 134.02C312.87 135.48 301.63 114.41 301.63 114.41L294.83 116.54Z" fill="black"/>
<path d="M339.62 149.74C337.88 138.42 331.29 138.62 324.87 141.15C325.32 145.41 325.33 150.85 319.16 154.24C313.61 157.24 311.45 152.24 311.33 148.02C305.51 151.33 300.65 155.57 302.24 164.02C303.15 168.82 307.39 174.09 311.73 180.78C316.92 188.78 322.26 197.86 322.26 197.86L351.92 182.76C351.92 182.76 341.51 162 339.62 149.74Z" fill="#FF6F69"/>
<path opacity="0.2" d="M339.62 149.74C339.41 148.281 339.051 146.847 338.55 145.46L334.06 144.7L331.72 148.42C331.72 148.42 336.67 157.14 343.25 162.65C341.643 158.468 340.428 154.146 339.62 149.74Z" fill="black"/>
<path d="M347.55 146.14C347.55 146.14 357.73 153.14 360.84 155.79C365.47 159.79 377.94 173.26 377.94 173.26L385.59 177.44V182.28L381.97 184.78C381.706 184.963 381.408 185.091 381.093 185.157C380.779 185.223 380.454 185.226 380.139 185.166C379.823 185.105 379.523 184.982 379.255 184.805C378.988 184.627 378.758 184.397 378.58 184.13L373.94 177.2C373.94 177.2 362.5 166.75 358.29 163.77C354.73 161.25 343.19 155.06 343.19 155.06L347.55 146.14Z" fill="#FFC3BD"/>
<path d="M328.76 140.1C328.76 140.1 335.32 137.15 340.91 140.1C346.5 143.05 348.97 144.67 348.42 148.23C347.87 151.79 345.82 159.15 342.14 157.93C338.46 156.71 326.72 145.06 328.76 140.1Z" fill="#FF6F69"/>
<path d="M317.8 120.82C318.56 128.49 319.05 131.71 315.85 136.22C311.03 143.01 301.45 142.27 298.42 134.99C295.68 128.43 294.9 116.99 301.84 112.79C303.363 111.841 305.105 111.298 306.898 111.214C308.69 111.13 310.475 111.507 312.08 112.31C313.686 113.112 315.058 114.314 316.067 115.798C317.075 117.283 317.686 119.002 317.84 120.79L317.8 120.82Z" fill="#FFC3BD"/>
<path d="M301.69 126.68C301.369 128.178 300.844 129.625 300.13 130.98C300.479 131.156 300.862 131.254 301.252 131.266C301.643 131.278 302.031 131.204 302.39 131.05L301.69 126.68Z" fill="#ED893E"/>
<path d="M306.81 121.56C306.856 121.534 306.894 121.496 306.92 121.45C306.957 121.38 306.967 121.299 306.946 121.223C306.926 121.147 306.877 121.082 306.81 121.04C306.32 120.744 305.767 120.57 305.196 120.534C304.625 120.497 304.053 120.599 303.53 120.83C303.459 120.87 303.406 120.936 303.381 121.014C303.357 121.092 303.364 121.177 303.4 121.25C303.436 121.32 303.499 121.373 303.573 121.397C303.648 121.421 303.73 121.415 303.8 121.38C304.237 121.196 304.711 121.118 305.184 121.153C305.657 121.188 306.115 121.334 306.52 121.58C306.566 121.602 306.617 121.612 306.668 121.609C306.719 121.605 306.768 121.589 306.81 121.56Z" fill="#263238"/>
<path d="M295.36 123.5L295.49 123.4C295.787 123.036 296.165 122.747 296.594 122.556C297.023 122.365 297.491 122.277 297.96 122.3C298.041 122.311 298.123 122.291 298.188 122.242C298.254 122.193 298.298 122.121 298.31 122.04C298.313 121.959 298.287 121.879 298.235 121.816C298.183 121.754 298.11 121.712 298.03 121.7C297.461 121.669 296.893 121.772 296.372 122.001C295.851 122.23 295.391 122.58 295.03 123.02C294.974 123.078 294.943 123.155 294.943 123.235C294.943 123.315 294.974 123.392 295.03 123.45C295.075 123.489 295.129 123.514 295.187 123.525C295.245 123.536 295.305 123.53 295.36 123.51V123.5Z" fill="#263238"/>
<path d="M305.89 125C305.99 125.61 305.74 126.16 305.33 126.23C304.92 126.3 304.52 125.86 304.43 125.23C304.34 124.6 304.57 124.07 304.97 124C305.37 123.93 305.78 124.34 305.89 125Z" fill="#263238"/>
<path d="M298.9 126.09C299 126.7 298.75 127.25 298.35 127.32C297.95 127.39 297.55 126.94 297.44 126.32C297.33 125.7 297.59 125.15 297.99 125.09C298.39 125.03 298.81 125.46 298.9 126.09Z" fill="#263238"/>
<path d="M298.17 125.09L296.62 124.91C296.62 124.91 297.57 125.94 298.17 125.09Z" fill="#263238"/>
<path d="M305.16 124L303.61 123.82C303.61 123.82 304.56 124.81 305.16 124Z" fill="#263238"/>
<path d="M307.38 133.89C307.76 133.705 308.122 133.484 308.46 133.23C308.484 133.213 308.504 133.192 308.52 133.167C308.535 133.142 308.545 133.114 308.55 133.085C308.555 133.057 308.554 133.027 308.547 132.999C308.54 132.97 308.527 132.944 308.51 132.92C308.468 132.881 308.412 132.86 308.355 132.86C308.298 132.86 308.242 132.881 308.2 132.92C307.454 133.492 306.583 133.88 305.659 134.054C304.735 134.228 303.783 134.182 302.88 133.92C302.853 133.909 302.824 133.903 302.795 133.902C302.766 133.902 302.737 133.908 302.71 133.919C302.683 133.93 302.658 133.947 302.638 133.968C302.617 133.988 302.601 134.013 302.59 134.04C302.577 134.067 302.571 134.097 302.57 134.127C302.57 134.157 302.576 134.187 302.589 134.215C302.601 134.242 302.619 134.267 302.642 134.287C302.664 134.307 302.691 134.321 302.72 134.33C304.272 134.795 305.943 134.637 307.38 133.89Z" fill="#263238"/>
<path d="M301.26 116.62C298.26 116.98 290.26 119.26 291.53 111.8C292.8 104.34 307.09 100.61 313.73 105.43C320.37 110.25 325.47 109.89 330.73 105.98C335.99 102.07 338.55 103.61 345.29 107.25C345.29 107.25 341.65 113.53 343.38 117.35C343.38 117.35 339.38 113.35 331.91 117.62C331.91 117.62 340.55 115.33 343.83 121.3C343.83 121.3 342.92 127.89 346.1 131.81C349.28 135.73 346.01 140.37 333.82 135.64C321.63 130.91 320.33 135.25 317.52 133.16C314.71 131.07 312.6 125.41 312.16 121.3C311.88 118.34 310.55 115.52 301.26 116.62Z" fill="#263238"/>
<path d="M318.85 126.09C318.754 126.823 318.515 127.529 318.146 128.169C317.777 128.809 317.286 129.37 316.7 129.82C315.13 131 313.62 129.82 313.46 127.91C313.31 126.24 313.95 123.6 315.82 123.14C316.232 123.055 316.658 123.074 317.061 123.195C317.464 123.315 317.831 123.534 318.128 123.832C318.426 124.129 318.644 124.496 318.765 124.899C318.886 125.302 318.905 125.728 318.82 126.14L318.85 126.09Z" fill="#FFC3BD"/>
<path d="M359 338C359.26 344.39 359.45 349.46 359.45 349.46L352.35 350.27C352.35 350.27 351.67 345.95 350.65 339.32L359 338Z" fill="#FFC3BD"/>
<path d="M349.23 348.73C348.498 348.864 347.743 348.722 347.11 348.33C347.034 348.223 346.994 348.096 346.994 347.965C346.994 347.834 347.034 347.707 347.11 347.6C347.159 347.498 347.229 347.407 347.315 347.333C347.401 347.259 347.502 347.203 347.61 347.17C348.78 346.77 351.34 348.02 351.45 348.08C351.482 348.096 351.508 348.12 351.526 348.15C351.543 348.18 351.552 348.215 351.55 348.25C351.546 348.284 351.532 348.316 351.508 348.342C351.485 348.367 351.454 348.384 351.42 348.39C350.702 348.57 349.969 348.684 349.23 348.73ZM348.02 347.43C347.911 347.43 347.802 347.45 347.7 347.49C347.631 347.504 347.566 347.533 347.51 347.577C347.455 347.62 347.41 347.676 347.38 347.74C347.27 347.96 347.32 348.06 347.38 348.11C347.74 348.55 349.53 348.45 350.84 348.2C349.95 347.768 348.987 347.507 348 347.43H348.02Z" fill="#FF6F69"/>
<path d="M351.36 348.39H351.29C350.42 348.07 348.62 346.64 348.72 345.83C348.72 345.64 348.85 345.4 349.31 345.32C349.483 345.284 349.663 345.286 349.835 345.326C350.008 345.365 350.17 345.442 350.31 345.55C351.007 346.282 351.452 347.217 351.58 348.22C351.587 348.245 351.587 348.27 351.58 348.295C351.573 348.32 351.56 348.342 351.541 348.359C351.523 348.377 351.5 348.389 351.475 348.394C351.45 348.4 351.424 348.398 351.4 348.39H351.36ZM349.44 345.63H349.35C349.05 345.63 349.03 345.8 349.03 345.84C349.03 346.32 350.21 347.46 351.12 347.92C350.986 347.122 350.609 346.385 350.04 345.81C349.868 345.681 349.655 345.617 349.44 345.63Z" fill="#FF6F69"/>
<path d="M352.05 347.35L359.79 346.86C359.932 346.85 360.073 346.889 360.19 346.971C360.306 347.053 360.391 347.173 360.43 347.31L362.24 353.52C362.284 353.651 362.301 353.789 362.289 353.926C362.278 354.063 362.238 354.197 362.172 354.318C362.106 354.439 362.016 354.545 361.907 354.63C361.799 354.715 361.674 354.776 361.54 354.81C361.467 354.82 361.393 354.82 361.32 354.81C358.53 354.94 356.03 354.95 352.56 355.17C348.46 355.44 349.56 355.86 344.71 356.24C341.81 356.46 341.07 353.24 342.29 352.95C347.88 351.88 348.36 350.14 350.4 347.95C350.863 347.564 351.447 347.352 352.05 347.35Z" fill="#263238"/>
<path d="M354.7 187.18L353.35 182.33C353.308 182.193 353.237 182.067 353.142 181.961C353.047 181.854 352.93 181.769 352.799 181.711C352.668 181.653 352.526 181.624 352.383 181.625C352.24 181.627 352.099 181.659 351.97 181.72L321.71 197C321.588 197.066 321.481 197.156 321.396 197.266C321.311 197.375 321.249 197.501 321.215 197.636C321.181 197.77 321.176 197.91 321.199 198.047C321.222 198.184 321.274 198.314 321.35 198.43L324.41 202.88C324.41 202.88 331.92 254 335 271C338.18 288.33 349.56 340.19 349.56 340.19C349.596 340.375 349.704 340.538 349.859 340.644C350.014 340.751 350.205 340.792 350.39 340.76L359.2 339.34C359.367 339.312 359.519 339.227 359.631 339.099C359.742 338.972 359.805 338.809 359.81 338.64C359.91 334.22 359.81 306.28 357.03 286.51C356.03 279.45 353.65 273.79 352.84 269.9C351.95 265.61 353.33 262.73 353.84 252.4C354.94 233 356.16 202.3 354.7 187.18Z" fill="#263238"/>
<path opacity="0.5" d="M353.91 252.44C354.26 245.93 354.62 238.17 354.91 230.15L346.13 215.35L342.22 206.61L338.52 211.61C338.52 211.61 345.06 239.12 353.65 256.4C353.74 255.24 353.84 253.92 353.91 252.44Z" fill="black"/>
<path d="M420.5 313.54C424.18 318.77 426.57 322.21 426.57 322.21L421 326.73L413.64 318.45L420.5 313.54Z" fill="#FFC3BD"/>
<path d="M417.16 327.08C416.617 327.589 415.904 327.877 415.16 327.89C415.034 327.848 414.925 327.767 414.848 327.66C414.771 327.552 414.73 327.423 414.73 327.29C414.71 327.063 414.778 326.838 414.92 326.66C415.69 325.66 418.52 325.36 418.65 325.34C418.686 325.335 418.722 325.343 418.752 325.361C418.783 325.379 418.807 325.407 418.82 325.44C418.839 325.468 418.849 325.501 418.849 325.535C418.849 325.569 418.839 325.602 418.82 325.63C418.308 326.159 417.753 326.644 417.16 327.08ZM415.43 326.64C415.341 326.703 415.26 326.777 415.19 326.86C415.144 326.913 415.11 326.975 415.089 327.042C415.069 327.11 415.062 327.18 415.07 327.25C415.07 327.49 415.19 327.55 415.26 327.57C415.8 327.74 417.26 326.69 418.26 325.77C417.27 325.876 416.309 326.171 415.43 326.64Z" fill="#FF6F69"/>
<path d="M418.77 325.64H418.71C417.8 325.84 415.51 325.64 415.16 324.88C415.06 324.71 415.03 324.44 415.38 324.13C415.503 324.016 415.648 323.928 415.806 323.871C415.964 323.815 416.132 323.79 416.3 323.8C417.286 324.041 418.172 324.587 418.83 325.36C418.845 325.386 418.853 325.415 418.853 325.445C418.853 325.475 418.845 325.504 418.83 325.53C418.822 325.572 418.801 325.611 418.77 325.64ZM415.66 324.36L415.58 324.41C415.35 324.61 415.4 324.72 415.42 324.76C415.67 325.17 417.29 325.48 418.31 325.37C417.757 324.777 417.04 324.362 416.25 324.18C416.038 324.169 415.829 324.232 415.66 324.36Z" fill="#FF6F69"/>
<path d="M418.78 324.4L425.03 319.79C425.14 319.701 425.278 319.652 425.42 319.652C425.562 319.652 425.7 319.701 425.81 319.79L430.68 324.04C430.788 324.125 430.877 324.231 430.942 324.353C431.007 324.474 431.047 324.607 431.058 324.744C431.069 324.881 431.052 325.019 431.008 325.149C430.963 325.279 430.893 325.398 430.8 325.5C430.752 325.555 430.698 325.605 430.64 325.65C428.36 327.27 426.26 328.65 423.46 330.7C420.16 333.14 421.29 332.92 417.46 335.84C415.14 337.6 412.75 335.25 413.64 334.39C417.77 330.46 417.23 328.74 417.78 325.82C417.934 325.243 418.289 324.74 418.78 324.4Z" fill="#263238"/>
<path d="M332.54 199.52C332.54 199.52 355.71 252.93 366.66 268.85C376.39 282.99 413.33 319.17 413.33 319.17C413.603 319.464 413.979 319.641 414.379 319.666C414.779 319.69 415.174 319.559 415.48 319.3L420.61 314.94C420.891 314.698 421.077 314.365 421.136 313.999C421.194 313.632 421.121 313.258 420.93 312.94C417.78 307.81 404.52 286.48 392.88 272.6C388.24 267.07 383.78 263.01 381.58 259.96C378.69 255.96 379.37 252.7 377.08 241.51C372.82 220.7 364.52 190.1 351.92 185.21L332.54 199.52Z" fill="#263238"/>
<path opacity="0.3" d="M287.81 350.43H193.42C191.906 350.457 190.403 350.162 189.013 349.564C187.622 348.965 186.374 348.077 185.353 346.959C184.333 345.84 183.562 344.517 183.092 343.078C182.622 341.638 182.465 340.115 182.63 338.61L203.37 101.61C203.695 98.4062 205.183 95.4328 207.553 93.2526C209.923 91.0725 213.01 89.8369 216.23 89.78H310.62C312.135 89.7523 313.638 90.0479 315.03 90.6471C316.422 91.2462 317.669 92.1351 318.691 93.2546C319.712 94.3741 320.482 95.6983 320.951 97.1391C321.42 98.5798 321.576 100.104 321.41 101.61L300.67 338.61C300.343 341.812 298.853 344.783 296.484 346.961C294.114 349.139 291.028 350.373 287.81 350.43Z" fill="#FF6F69"/>
<path d="M310.62 89.74H216.23C213.01 89.797 209.923 91.0325 207.553 93.2126C205.183 95.3928 203.695 98.3662 203.37 101.57L182.63 338.57C182.465 340.075 182.622 341.598 183.092 343.038C183.562 344.477 184.333 345.8 185.353 346.919C186.374 348.037 187.622 348.925 189.013 349.524C190.403 350.122 191.906 350.417 193.42 350.39H287.81C291.028 350.333 294.114 349.099 296.484 346.921C298.853 344.743 300.343 341.772 300.67 338.57L321.41 101.57C321.576 100.064 321.42 98.5398 320.951 97.0991C320.482 95.6583 319.712 94.3341 318.691 93.2146C317.669 92.0952 316.422 91.2062 315.03 90.6071C313.638 90.0079 312.135 89.7123 310.62 89.74ZM295.42 338.61C295.237 340.39 294.408 342.041 293.091 343.251C291.774 344.462 290.059 345.148 288.27 345.18H193.88C193.038 345.195 192.203 345.03 191.43 344.698C190.657 344.365 189.964 343.871 189.396 343.25C188.829 342.628 188.4 341.893 188.139 341.093C187.877 340.293 187.789 339.447 187.88 338.61L208.62 101.61C208.801 99.8285 209.628 98.1751 210.946 96.9625C212.263 95.75 213.98 95.0624 215.77 95.03H310.16C311.002 95.015 311.838 95.1796 312.612 95.513C313.386 95.8464 314.08 96.3409 314.648 96.9635C315.215 97.5861 315.644 98.3225 315.905 99.1237C316.165 99.9249 316.252 100.773 316.16 101.61L295.42 338.61Z" fill="#FF6F69"/>
<path opacity="0.6" d="M310.62 89.74H216.23C213.01 89.797 209.923 91.0325 207.553 93.2126C205.183 95.3928 203.695 98.3662 203.37 101.57L182.63 338.57C182.465 340.075 182.622 341.598 183.092 343.038C183.562 344.477 184.333 345.8 185.353 346.919C186.374 348.037 187.622 348.925 189.013 349.524C190.403 350.122 191.906 350.417 193.42 350.39H287.81C291.028 350.333 294.114 349.099 296.484 346.921C298.853 344.743 300.343 341.772 300.67 338.57L321.41 101.57C321.576 100.064 321.42 98.5398 320.951 97.0991C320.482 95.6583 319.712 94.3341 318.691 93.2146C317.669 92.0952 316.422 91.2062 315.03 90.6071C313.638 90.0079 312.135 89.7123 310.62 89.74ZM295.42 338.61C295.237 340.39 294.408 342.041 293.091 343.251C291.774 344.462 290.059 345.148 288.27 345.18H193.88C193.038 345.195 192.203 345.03 191.43 344.698C190.657 344.365 189.964 343.871 189.396 343.25C188.829 342.628 188.4 341.893 188.139 341.093C187.877 340.293 187.789 339.447 187.88 338.61L208.62 101.61C208.801 99.8285 209.628 98.1751 210.946 96.9625C212.263 95.75 213.98 95.0624 215.77 95.03H310.16C311.002 95.015 311.838 95.1796 312.612 95.513C313.386 95.8464 314.08 96.3409 314.648 96.9635C315.215 97.5861 315.644 98.3225 315.905 99.1237C316.165 99.9249 316.252 100.773 316.16 101.61L295.42 338.61Z" fill="white"/>
<path d="M254.79 335.79H228.79C228.394 335.798 228.014 335.951 227.723 336.22C227.431 336.489 227.249 336.855 227.21 337.25C227.19 337.435 227.21 337.622 227.268 337.799C227.326 337.976 227.421 338.139 227.547 338.276C227.673 338.413 227.827 338.522 227.998 338.595C228.169 338.668 228.354 338.704 228.54 338.7H254.54C254.936 338.695 255.317 338.544 255.61 338.277C255.904 338.01 256.088 337.644 256.13 337.25C256.15 337.064 256.13 336.875 256.071 336.697C256.013 336.519 255.917 336.355 255.79 336.217C255.663 336.079 255.508 335.969 255.336 335.896C255.164 335.822 254.977 335.786 254.79 335.79Z" fill="white"/>
<path opacity="0.1" d="M254.15 200H226.63C225.746 200.017 224.868 199.845 224.056 199.496C223.244 199.146 222.515 198.628 221.919 197.975C221.323 197.322 220.873 196.55 220.599 195.709C220.325 194.868 220.233 193.979 220.33 193.1L222.74 165.57C222.93 163.702 223.799 161.968 225.181 160.697C226.562 159.425 228.362 158.704 230.24 158.67H257.77C258.653 158.655 259.53 158.828 260.342 159.178C261.153 159.527 261.881 160.046 262.477 160.698C263.073 161.351 263.523 162.123 263.798 162.963C264.072 163.803 264.165 164.691 264.07 165.57L261.66 193.1C261.469 194.97 260.6 196.705 259.216 197.977C257.831 199.248 256.029 199.968 254.15 200Z" fill="black"/>
<path d="M251.15 197H223.63C222.746 197.017 221.868 196.845 221.056 196.496C220.244 196.146 219.515 195.628 218.919 194.975C218.323 194.322 217.873 193.55 217.599 192.709C217.325 191.868 217.233 190.979 217.33 190.1L219.74 162.57C219.93 160.702 220.799 158.968 222.181 157.697C223.562 156.425 225.362 155.704 227.24 155.67H254.77C255.653 155.655 256.53 155.828 257.342 156.178C258.153 156.527 258.881 157.046 259.477 157.698C260.073 158.351 260.523 159.123 260.798 159.963C261.072 160.803 261.165 161.691 261.07 162.57L258.66 190.1C258.469 191.97 257.6 193.705 256.216 194.977C254.831 196.248 253.029 196.968 251.15 197Z" fill="#FF6F69"/>
<path d="M243.82 173.82C244.29 168.48 239.82 164.16 233.72 164.16C227.62 164.16 222.4 168.48 221.94 173.82C221.57 178.03 224.32 181.61 228.47 182.92C227.894 184.04 226.977 184.947 225.85 185.51C226.05 185.633 226.261 185.737 226.48 185.82C227.6 186.183 228.811 186.145 229.906 185.712C231 185.28 231.911 184.48 232.48 183.45C238.32 183.25 243.37 179 243.82 173.82Z" fill="white"/>
<path d="M256.49 178.44C256.88 174.04 253.15 170.44 248.16 170.44C247.283 170.442 246.41 170.553 245.56 170.77C245.768 171.756 245.832 172.766 245.75 173.77C245.534 175.676 244.88 177.507 243.839 179.118C242.798 180.73 241.399 182.079 239.75 183.06C240.509 184.039 241.474 184.839 242.576 185.404C243.679 185.969 244.892 186.285 246.13 186.33C246.282 186.732 246.512 187.1 246.807 187.413C247.101 187.726 247.455 187.977 247.847 188.153C248.239 188.328 248.662 188.425 249.092 188.436C249.521 188.448 249.949 188.374 250.35 188.22C250.528 188.154 250.701 188.077 250.87 187.99C250.116 187.56 249.544 186.87 249.26 186.05C253.13 185.15 256.17 182.09 256.49 178.44Z" fill="white"/>
<path opacity="0.1" d="M241.53 285.2H221.06C220.402 285.212 219.75 285.085 219.146 284.825C218.541 284.566 217.999 284.18 217.556 283.695C217.112 283.21 216.777 282.635 216.572 282.01C216.368 281.385 216.299 280.724 216.37 280.07L218.16 259.6C218.302 258.208 218.949 256.916 219.979 255.969C221.009 255.021 222.351 254.485 223.75 254.46H244.22C244.878 254.447 245.532 254.575 246.137 254.836C246.742 255.096 247.285 255.482 247.728 255.968C248.172 256.455 248.507 257.03 248.711 257.657C248.915 258.283 248.983 258.945 248.91 259.6L247.12 280.07C246.978 281.461 246.331 282.752 245.3 283.698C244.27 284.643 242.928 285.178 241.53 285.2Z" fill="black"/>
<path opacity="0.1" d="M271.57 245.36H246C245.178 245.375 244.362 245.215 243.607 244.889C242.852 244.564 242.176 244.082 241.622 243.474C241.068 242.866 240.651 242.148 240.397 241.366C240.143 240.584 240.059 239.757 240.15 238.94L242.38 213.35C242.558 211.609 243.37 209.993 244.66 208.81C245.95 207.626 247.629 206.958 249.38 206.93H274.98C275.801 206.917 276.616 207.078 277.37 207.404C278.125 207.73 278.801 208.212 279.354 208.819C279.907 209.427 280.325 210.145 280.58 210.926C280.834 211.707 280.919 212.533 280.83 213.35L278.6 238.94C278.421 240.687 277.605 242.306 276.309 243.49C275.012 244.674 273.326 245.34 271.57 245.36Z" fill="black"/>
<path d="M268.57 242.36H243C242.178 242.375 241.362 242.215 240.607 241.889C239.852 241.564 239.176 241.082 238.622 240.474C238.068 239.866 237.651 239.148 237.397 238.366C237.143 237.584 237.059 236.757 237.15 235.94L239.38 210.35C239.558 208.609 240.37 206.993 241.66 205.81C242.95 204.626 244.629 203.958 246.38 203.93H271.98C272.801 203.917 273.616 204.078 274.37 204.404C275.125 204.73 275.801 205.212 276.354 205.819C276.907 206.427 277.325 207.145 277.58 207.926C277.834 208.707 277.919 209.533 277.83 210.35L275.6 235.94C275.421 237.687 274.605 239.306 273.309 240.49C272.012 241.674 270.326 242.34 268.57 242.36Z" fill="#FF6F69"/>
<path d="M238.53 282.2H218.06C217.402 282.212 216.75 282.085 216.146 281.825C215.541 281.566 214.999 281.18 214.556 280.695C214.112 280.21 213.777 279.635 213.572 279.01C213.368 278.385 213.299 277.724 213.37 277.07L215.16 256.6C215.302 255.208 215.949 253.916 216.979 252.969C218.009 252.021 219.351 251.485 220.75 251.46H241.22C241.878 251.447 242.532 251.575 243.137 251.836C243.742 252.096 244.285 252.482 244.728 252.968C245.172 253.455 245.507 254.03 245.711 254.657C245.915 255.283 245.983 255.945 245.91 256.6L244.12 277.07C243.978 278.461 243.331 279.752 242.3 280.698C241.27 281.643 239.928 282.178 238.53 282.2Z" fill="#FF6F69"/>
<path d="M270.25 212.59H246.5C245.749 212.587 245.024 212.866 244.469 213.371C243.913 213.877 243.567 214.572 243.5 215.32L242.17 231C242.133 231.347 242.17 231.697 242.279 232.029C242.388 232.36 242.566 232.664 242.801 232.921C243.037 233.179 243.324 233.383 243.645 233.521C243.965 233.658 244.311 233.726 244.66 233.72H268.4C269.149 233.723 269.873 233.446 270.428 232.943C270.983 232.439 271.33 231.746 271.4 231L272.77 215.34C272.812 214.988 272.777 214.632 272.669 214.295C272.56 213.958 272.38 213.648 272.141 213.387C271.902 213.126 271.609 212.919 271.282 212.782C270.956 212.644 270.604 212.579 270.25 212.59ZM252.06 223.13L244.11 230.44L245.39 215.82L252.06 223.13ZM246.84 214.48H269.57L258.08 225.05C257.976 225.155 257.852 225.238 257.715 225.295C257.579 225.352 257.433 225.381 257.285 225.381C257.137 225.381 256.991 225.352 256.854 225.295C256.718 225.238 256.594 225.155 256.49 225.05L246.84 214.48ZM253.28 224.48L255.03 226.4C255.293 226.683 255.612 226.907 255.967 227.058C256.321 227.21 256.704 227.285 257.09 227.28C257.911 227.275 258.7 226.96 259.3 226.4L261.39 224.48L268.09 231.82H245.3L253.28 224.48ZM262.84 223.14L270.84 215.83L269.56 230.45L262.84 223.14Z" fill="white"/>
<path d="M220.25 261.32L226.25 263.76L232.85 259.24L227.89 265.11L231.53 270.25L237.3 255.93L220.25 261.32Z" fill="white"/>
<path d="M225.84 265.12L228.54 268.42H225.66L225.84 265.12Z" fill="white"/>
<path d="M223.45 269.43L222.82 269.03C223.003 268.733 223.207 268.449 223.43 268.18L224 268.67C223.799 268.91 223.616 269.164 223.45 269.43Z" fill="white"/>
<path d="M223.15 274.36C222.527 274.016 222.064 273.442 221.86 272.76L222.58 272.56C222.749 273.06 223.108 273.474 223.58 273.71L223.15 274.36ZM222.52 271.78L221.77 271.72C221.844 271.067 222.037 270.433 222.34 269.85L223.02 270.19C222.756 270.684 222.587 271.224 222.52 271.78Z" fill="white"/>
<path d="M238.27 277L237.53 276.87C237.565 276.689 237.582 276.505 237.58 276.32C237.603 276 237.506 275.683 237.31 275.43L237.89 274.95C238.192 275.341 238.347 275.826 238.33 276.32C238.328 276.548 238.308 276.775 238.27 277ZM227.64 275.27H226.86V274.52C227.456 274.55 228.054 274.55 228.65 274.52V275.27H227.64ZM229.64 275.19V274.44C230.25 274.44 230.86 274.34 231.45 274.28L231.52 275.03L229.64 275.19ZM225.93 275.19H225.62C225.094 275.121 224.575 275.004 224.07 274.84L224.31 274.13C224.768 274.283 225.24 274.39 225.72 274.45H226.01L225.93 275.19ZM236.73 275.04C236.194 274.867 235.633 274.786 235.07 274.8V274C235.725 273.983 236.378 274.081 237 274.29L236.73 275.04ZM232.38 274.95L232.31 274.2C232.95 274.14 233.57 274.09 234.14 274.06V274.81C233.61 274.81 233 274.86 232.37 274.92L232.38 274.95Z" fill="white"/>
<path d="M237.65 278.9L236.96 278.6C237.1 278.28 237.22 277.97 237.31 277.7L238.02 277.93C237.92 278.23 237.8 278.55 237.65 278.9Z" fill="white"/>
<path opacity="0.1" d="M265.4 153.07H242.4C241.66 153.083 240.926 152.938 240.246 152.645C239.567 152.352 238.957 151.918 238.459 151.371C237.96 150.824 237.584 150.177 237.355 149.474C237.125 148.77 237.049 148.026 237.13 147.29L239.13 124.29C239.289 122.725 240.015 121.273 241.173 120.208C242.33 119.143 243.837 118.539 245.41 118.51H268.41C269.15 118.497 269.884 118.642 270.564 118.935C271.243 119.228 271.853 119.662 272.351 120.209C272.85 120.756 273.226 121.403 273.455 122.106C273.685 122.81 273.761 123.554 273.68 124.29L271.68 147.29C271.521 148.855 270.795 150.307 269.637 151.372C268.48 152.437 266.973 153.041 265.4 153.07Z" fill="black"/>
<path d="M262.4 150.07H239.4C238.66 150.083 237.926 149.938 237.246 149.645C236.567 149.352 235.957 148.918 235.459 148.371C234.96 147.824 234.584 147.177 234.355 146.474C234.125 145.77 234.049 145.026 234.13 144.29L236.13 121.29C236.289 119.725 237.015 118.273 238.173 117.208C239.33 116.143 240.837 115.539 242.41 115.51H265.41C266.15 115.497 266.884 115.642 267.564 115.935C268.243 116.228 268.853 116.662 269.351 117.209C269.85 117.756 270.226 118.403 270.455 119.106C270.685 119.81 270.761 120.554 270.68 121.29L268.68 144.29C268.521 145.855 267.795 147.307 266.637 148.372C265.48 149.437 263.973 150.041 262.4 150.07Z" fill="#FF6F69"/>
<path d="M263.63 137.47C263.479 133.423 261.898 129.56 259.168 126.569C256.438 123.577 252.736 121.65 248.72 121.13C247.545 120.552 246.207 120.397 244.931 120.693C243.656 120.988 242.521 121.715 241.72 122.75C239.72 125.18 241.5 126.75 243.72 128.49C245.94 130.23 247.93 131.56 249.9 129.13C250.639 128.241 251.095 127.151 251.21 126C253.057 126.754 254.712 127.91 256.056 129.384C257.4 130.857 258.399 132.612 258.98 134.52C257.831 134.525 256.71 134.873 255.76 135.52C253.17 137.28 254.31 139.33 255.86 141.76C257.41 144.19 258.79 146.07 261.37 144.3C262.471 143.592 263.297 142.528 263.708 141.285C264.119 140.042 264.092 138.695 263.63 137.47Z" fill="white"/>
<path d="M254 85.76H269.7C270.48 85.76 270.58 84.56 269.81 84.56H254.13C253.36 84.56 253.25 85.76 254.02 85.76H254Z" fill="#FF6F69"/>
<path d="M275.45 85.76H280C280.78 85.76 280.88 84.56 280.11 84.56H275.6C274.83 84.56 274.72 85.76 275.5 85.76H275.45Z" fill="#FF6F69"/>
<g opacity="0.3">
<path d="M254 85.76H269.7C270.48 85.76 270.58 84.56 269.81 84.56H254.13C253.36 84.56 253.25 85.76 254.02 85.76H254Z" fill="white"/>
</g>
<g opacity="0.3">
<path d="M275.45 85.76H280C280.78 85.76 280.88 84.56 280.11 84.56H275.6C274.83 84.56 274.72 85.76 275.5 85.76H275.45Z" fill="white"/>
</g>
<path d="M305.7 207.07L304.32 222.75C304.307 222.909 304.357 223.067 304.46 223.189C304.563 223.311 304.711 223.387 304.87 223.4C305.029 223.413 305.187 223.363 305.309 223.26C305.431 223.156 305.507 223.009 305.52 222.85C305.973 217.63 306.43 212.403 306.89 207.17C306.888 207.021 306.83 206.878 306.729 206.769C306.627 206.661 306.489 206.593 306.34 206.581C306.192 206.568 306.044 206.612 305.926 206.702C305.807 206.792 305.727 206.924 305.7 207.07Z" fill="#FF6F69"/>
<path d="M303.82 228.49L303.43 233C303.432 233.149 303.49 233.292 303.591 233.401C303.693 233.509 303.831 233.577 303.98 233.589C304.128 233.602 304.276 233.558 304.394 233.468C304.512 233.378 304.593 233.246 304.62 233.1L305.01 228.6C305.01 228.45 304.954 228.306 304.854 228.195C304.753 228.084 304.614 228.015 304.465 228.002C304.316 227.988 304.167 228.03 304.048 228.121C303.928 228.211 303.847 228.343 303.82 228.49Z" fill="#FF6F69"/>
<g opacity="0.3">
<path d="M305.7 207.07L304.32 222.75C304.307 222.909 304.357 223.067 304.46 223.189C304.563 223.311 304.711 223.387 304.87 223.4C305.029 223.413 305.187 223.363 305.309 223.26C305.431 223.156 305.507 223.009 305.52 222.85C305.973 217.63 306.43 212.403 306.89 207.17C306.888 207.021 306.83 206.878 306.729 206.769C306.627 206.661 306.489 206.593 306.34 206.581C306.192 206.568 306.044 206.612 305.926 206.702C305.807 206.792 305.727 206.924 305.7 207.07Z" fill="white"/>
</g>
<g opacity="0.3">
<path d="M303.82 228.49L303.43 233C303.432 233.149 303.49 233.292 303.591 233.401C303.693 233.509 303.831 233.577 303.98 233.589C304.128 233.602 304.276 233.558 304.394 233.468C304.512 233.378 304.593 233.246 304.62 233.1L305.01 228.6C305.01 228.45 304.954 228.306 304.854 228.195C304.753 228.084 304.614 228.015 304.465 228.002C304.316 227.988 304.167 228.03 304.048 228.121C303.928 228.211 303.847 228.343 303.82 228.49Z" fill="white"/>
</g>
<path d="M166.85 137.29C166.85 137.29 161.05 136.5 161.75 139.52C162.26 141.72 164.21 137.39 166.85 137.29Z" fill="#263238"/>
<path d="M161.81 144.15C161.81 144.15 166.59 144.1 167.33 135.39C167.33 135.39 171.89 133.8 174.48 136.64C177.07 139.48 171.12 144.98 174.4 147.84C174.4 147.84 171.12 149.63 161.81 144.15Z" fill="#FF8B7B"/>
<path d="M179.5 113.38C179.5 113.38 185.66 112.06 187.26 116.59C188.86 121.12 178.14 119.13 178.14 119.13L179.5 113.38Z" fill="#263238"/>
<path opacity="0.3" d="M179.5 113.38C179.5 113.38 185.66 112.06 187.26 116.59C188.86 121.12 178.14 119.13 178.14 119.13L179.5 113.38Z" fill="black"/>
<path d="M184.54 124.67C184.64 124.09 185.02 123.67 185.4 123.74C185.78 123.81 186.01 124.32 185.91 124.9C185.81 125.48 185.42 125.9 185.05 125.84C184.68 125.78 184.44 125.25 184.54 124.67Z" fill="#263238"/>
<path d="M184.84 125.76L187.53 130.12C187.02 130.435 186.442 130.625 185.845 130.676C185.247 130.726 184.646 130.635 184.09 130.41L184.84 125.76Z" fill="#FF5652"/>
<path d="M164.47 121.87C164.13 129.28 163.83 132.42 167.14 136.59C172.41 141.05 181.31 141.67 183.85 134.5C186.14 128.06 186.31 117.05 179.41 113.31C177.894 112.487 176.192 112.066 174.467 112.086C172.742 112.106 171.05 112.567 169.553 113.425C168.057 114.282 166.804 115.508 165.914 116.987C165.024 118.465 164.527 120.146 164.47 121.87Z" fill="#FF8B7B"/>
<path d="M183.61 122.84C183.659 122.867 183.714 122.881 183.77 122.881C183.826 122.881 183.881 122.867 183.93 122.84C184.274 122.58 184.674 122.405 185.098 122.328C185.522 122.252 185.958 122.276 186.37 122.4C186.454 122.433 186.547 122.431 186.629 122.396C186.712 122.36 186.777 122.293 186.81 122.21C186.843 122.125 186.842 122.03 186.807 121.946C186.771 121.862 186.704 121.795 186.62 121.76C186.101 121.592 185.549 121.551 185.012 121.642C184.474 121.732 183.965 121.951 183.53 122.28C183.493 122.303 183.461 122.334 183.436 122.37C183.411 122.406 183.393 122.446 183.384 122.489C183.374 122.532 183.374 122.576 183.382 122.619C183.39 122.662 183.406 122.703 183.43 122.74C183.477 122.794 183.54 122.829 183.61 122.84Z" fill="#263238"/>
<path d="M158.45 145.65C158.45 145.65 160.51 139.96 169.04 143.59C177.57 147.22 178.37 152.22 178.37 152.22L158.45 145.65Z" fill="#263238"/>
<path opacity="0.4" d="M158.45 145.65C158.45 145.65 160.51 139.96 169.04 143.59C177.57 147.22 178.37 152.22 178.37 152.22L158.45 145.65Z" fill="black"/>
<path d="M162.28 253.49C162.28 253.49 161.07 263.86 160.49 267.29C159.97 270.29 143.49 348.99 143.49 348.99L136 347.75C136 347.75 135.17 307.88 140.94 281.49C142.13 276.09 144.52 271.57 145.39 267.44C146.09 264.13 145.03 253.89 145.03 253.89L162.28 253.49Z" fill="#FF8B7B"/>
<path d="M131 251.8C131 251.8 127.51 261.3 125.88 264.24C124.11 267.44 117.39 276.15 117.39 276.15L81.59 326.38L74.74 322.05C74.74 322.05 85.07 294.39 100.63 271.87C104.34 266.5 109.68 262.41 112.63 257.08C114.3 254.02 115.72 243.46 115.72 243.46L131 251.8Z" fill="#FF8B7B"/>
<path d="M140.6 155.64C140.6 155.64 132.03 166.57 132.76 171.16C133.49 175.75 146.92 181.34 146.92 181.34L150.33 176.49L141.51 170.05L149.91 160.42L140.6 155.64Z" fill="#FF8B7B"/>
<path d="M154.77 144.7C153.7 144.19 148.95 142.29 138.7 155.61C138.7 155.61 142.43 160.26 150.42 163.03C150.42 163 159.42 146.87 154.77 144.7Z" fill="#263238"/>
<path opacity="0.4" d="M150.42 163C150.42 163 151.92 160.32 153.42 157C153.18 151.29 152.48 144.2 150.48 146.75C147.82 150.13 144.14 156.94 142.93 159.22C145.245 160.812 147.765 162.083 150.42 163Z" fill="black"/>
<path d="M142.35 189C152.2 194.317 163.081 197.448 174.25 198.18L162.69 262.59C162.69 262.59 129.35 262.48 111.92 245.92C111.92 245.88 118.87 210.78 142.35 189Z" fill="#FF6F69"/>
<path d="M140.94 189.14C140.94 189.14 154.29 198.98 175.55 198.31C175.55 198.31 187.76 164.53 180.11 153.1C175.38 146.04 157.22 142.85 152.33 144.86C146.44 147.28 149.85 168.46 140.94 189.14Z" fill="#263238"/>
<path opacity="0.1" d="M144.14 223.84L129.29 256.31C134.497 258.201 139.847 259.669 145.29 260.7C145.29 260.7 145.79 230.37 144.14 223.84Z" fill="black"/>
<path opacity="0.4" d="M174.51 158.63L172.15 160.37C174.04 166.947 177.014 173.162 180.95 178.76C181.96 174.047 182.519 169.249 182.62 164.43L177.36 160L174.51 158.63Z" fill="black"/>
<path d="M187.89 163.51L195.89 174.66L216 176L219.69 172.93C219.935 172.722 220.24 172.596 220.56 172.57L231.3 171.72C231.377 171.716 231.455 171.728 231.527 171.755C231.599 171.783 231.665 171.825 231.72 171.88C231.775 171.935 231.817 172.001 231.845 172.073C231.872 172.145 231.884 172.223 231.88 172.3L231.82 173.21C231.809 173.34 231.753 173.462 231.662 173.555C231.571 173.648 231.45 173.707 231.32 173.72L226.23 174.12L225.23 179.33C225.172 179.623 225.032 179.894 224.827 180.112C224.622 180.33 224.36 180.485 224.07 180.56L220.07 181.56C219.815 181.63 219.545 181.63 219.29 181.56L216.47 180.85C216.47 180.85 200.8 184.01 193.61 182.74C186.42 181.47 179.33 169.74 179.33 169.74L187.89 163.51Z" fill="#FF8B7B"/>
<path d="M178.63 172C178.63 172 165.75 154.77 173.7 150.77C181.65 146.77 190 164.47 190 164.47C190 164.47 186.74 169.45 178.63 172Z" fill="#263238"/>
<path d="M145.13 348.54C145.092 348.532 145.057 348.512 145.03 348.484C145.003 348.455 144.986 348.419 144.98 348.38C144.974 348.339 144.981 348.297 144.998 348.26C145.016 348.223 145.045 348.191 145.08 348.17C145.21 348.11 148.16 346.56 149.53 347C149.657 347.036 149.775 347.098 149.878 347.18C149.981 347.262 150.067 347.364 150.13 347.48C150.22 347.603 150.269 347.752 150.269 347.905C150.269 348.058 150.22 348.207 150.13 348.33C149.409 348.807 148.536 349 147.68 348.87C146.822 348.841 145.968 348.731 145.13 348.54ZM145.78 348.3C147.31 348.55 149.4 348.62 149.78 348.09C149.84 348.03 149.9 347.91 149.78 347.66C149.744 347.587 149.692 347.524 149.628 347.473C149.564 347.423 149.489 347.388 149.41 347.37C149.288 347.33 149.159 347.31 149.03 347.31C147.894 347.431 146.791 347.767 145.78 348.3Z" fill="#FF6F69"/>
<path d="M145 348.53C144.971 348.511 144.947 348.484 144.933 348.452C144.919 348.42 144.914 348.385 144.92 348.35C144.92 348.24 145.24 346.02 146.32 345.19C146.476 345.07 146.655 344.982 146.846 344.932C147.036 344.882 147.235 344.871 147.43 344.9C147.97 344.97 148.12 345.25 148.14 345.48C148.28 346.41 146.22 348.13 145.21 348.54H145.13C145.087 348.551 145.041 348.548 145 348.53ZM147.28 345.26C147.034 345.247 146.792 345.325 146.6 345.48C145.951 346.169 145.532 347.043 145.4 347.98C146.4 347.41 147.81 346.06 147.78 345.49C147.78 345.44 147.78 345.3 147.4 345.26H147.28Z" fill="#FF6F69"/>
<path d="M144.33 347.35L135.33 347.01C135.164 347.005 135.001 347.057 134.868 347.157C134.736 347.257 134.641 347.399 134.6 347.56L132.69 354.85C132.607 355.159 132.65 355.488 132.81 355.765C132.969 356.043 133.232 356.246 133.54 356.33C133.626 356.345 133.714 356.345 133.8 356.33C137.06 356.4 139.96 356.33 144.02 356.49C148.81 356.67 147.57 357.19 153.2 357.49C156.59 357.66 157.35 353.83 155.92 353.59C149.37 352.52 148.76 350.5 146.31 348.05C145.756 347.586 145.053 347.337 144.33 347.35Z" fill="#263238"/>
<path d="M82.7101 326.87C82.6809 326.842 82.6599 326.807 82.6494 326.768C82.6388 326.73 82.639 326.689 82.6501 326.65C82.6627 326.612 82.6868 326.579 82.7191 326.556C82.7514 326.533 82.7902 326.52 82.8301 326.52C82.9801 326.52 86.3101 326.52 87.3401 327.52C87.533 327.707 87.6474 327.961 87.6601 328.23C87.6801 328.381 87.6522 328.535 87.5805 328.669C87.5088 328.804 87.3967 328.912 87.2601 328.98C86.397 329.076 85.5286 328.852 84.8201 328.35C84.0734 327.922 83.3672 327.426 82.7101 326.87ZM83.4001 326.95C84.6501 327.86 86.4901 328.86 87.0901 328.57C87.1701 328.57 87.2701 328.47 87.2601 328.18C87.2609 328.098 87.2434 328.017 87.2088 327.942C87.1742 327.868 87.1234 327.802 87.0601 327.75C86.9677 327.662 86.8633 327.588 86.7501 327.53C85.6763 327.146 84.5401 326.966 83.4001 327V326.95Z" fill="#FF6F69"/>
<path d="M82.6302 326.81C82.6104 326.78 82.5999 326.746 82.5999 326.71C82.5999 326.674 82.6104 326.64 82.6302 326.61C82.6902 326.53 83.9602 324.68 85.3102 324.43C85.5012 324.392 85.6978 324.393 85.8884 324.433C86.0791 324.472 86.2598 324.55 86.4202 324.66C86.8702 324.97 86.8902 325.29 86.8002 325.5C86.5002 326.4 83.8902 327.01 82.8002 326.92C82.7743 326.929 82.7461 326.929 82.7202 326.92C82.6771 326.896 82.6448 326.857 82.6302 326.81ZM86.1402 324.93C85.9266 324.803 85.6735 324.76 85.4302 324.81C84.54 325.138 83.7721 325.731 83.2302 326.51C84.4302 326.51 86.2302 325.87 86.4802 325.36C86.4802 325.31 86.5402 325.17 86.2402 324.97H86.1402V324.93Z" fill="#FF6F69"/>
<path d="M82.5301 325.45L74.6201 321.07C74.4754 320.989 74.3074 320.96 74.1438 320.987C73.9802 321.014 73.8308 321.096 73.7201 321.22L68.7201 326.87C68.6136 326.988 68.5315 327.126 68.4784 327.276C68.4253 327.426 68.4022 327.585 68.4106 327.744C68.419 327.902 68.4586 328.058 68.5271 328.202C68.5957 328.345 68.6918 328.474 68.8101 328.58L69.0201 328.73C71.9001 330.26 74.5301 331.51 78.0801 333.48C82.2701 335.8 80.9301 335.71 85.8201 338.48C88.8201 340.17 91.1801 337.09 90.0101 336.23C84.6501 332.32 85.0101 330.23 83.9301 326.95C83.6542 326.301 83.1586 325.77 82.5301 325.45Z" fill="#263238"/>
<path d="M177 128.24C177 128.24 180 127.24 178.9 122.89C178.9 122.89 180.67 119.89 180.39 118.3C180.39 118.3 189.39 113.11 184.25 107.42C179.11 101.73 169.78 105.53 165.65 112.8C165.65 112.8 143.7 119.94 158.98 133.36C173.85 146.47 177 128.24 177 128.24Z" fill="#263238"/>
<path d="M167.94 115.85C167.94 115.85 164.51 108.32 169.66 102.63C174.81 96.94 166.24 110.65 167.94 115.85Z" fill="#263238"/>
<path d="M177 128.24C177.085 128.212 177.169 128.179 177.25 128.14C177.25 122.5 175.08 115.74 166.76 111.14C166.36 111.68 165.99 112.241 165.65 112.82C165.65 112.82 165.02 113.03 164.05 113.43C166.93 116.49 174.84 126.62 165.95 137.69C174.86 140.47 177 128.24 177 128.24Z" fill="#FF6F69"/>
<path d="M177.35 125.6C178.371 126.719 178.907 128.197 178.84 129.71C178.73 131.71 176.77 132.1 175.21 131.02C173.8 130.02 172.16 127.82 173.04 126.02C173.238 125.638 173.529 125.311 173.885 125.07C174.241 124.829 174.653 124.68 175.081 124.639C175.509 124.597 175.942 124.663 176.338 124.831C176.734 124.999 177.082 125.263 177.35 125.6Z" fill="#FF8B7B"/>
<path d="M185.26 123.75L186.88 123.67C186.88 123.67 185.82 124.68 185.26 123.75Z" fill="#263238"/>
<path opacity="0.2" d="M170.43 138.67C171.242 140.311 172.491 141.695 174.04 142.67C174.39 141.763 174.694 140.838 174.95 139.9C173.384 139.753 171.855 139.337 170.43 138.67Z" fill="black"/>
</svg>
