<svg width="512" height="345" viewBox="0 0 512 345" fill="none" xmlns="http://www.w3.org/2000/svg">
<path d="M70.6472 211.942L0 344.405H363.885C368.206 344.405 372.18 342.038 374.238 338.239L509.843 87.8901C516.218 76.122 507.697 61.8163 494.313 61.8163H166.872C158.348 61.8163 150.49 66.4222 146.325 73.8592L116.766 126.643C114.568 130.568 117.405 135.407 121.902 135.407H204.664C213.417 135.407 219.11 144.618 215.196 152.447L195.212 192.415C189.229 204.382 176.997 211.942 163.618 211.942H70.6472Z" fill="black"/>
<path d="M41.2108 0H332.137C336.464 0 339.313 4.51158 337.453 8.4184L326.743 30.9081C317.752 49.7892 298.704 61.8163 277.791 61.8163H163.421C157.028 61.8163 151.134 65.2708 148.011 70.8485L116.766 126.643C114.568 130.568 117.405 135.407 121.902 135.407H227.177C235.441 135.407 241.133 143.696 238.167 151.408L230.851 170.429C221.232 195.439 197.204 211.942 170.408 211.942H70.6472L0 344.405V41.2109C0 18.4507 18.4507 0 41.2108 0Z" fill="#FF6F69"/>
</svg>
