<svg width="12" height="16" viewBox="0 0 12 16" fill="none" xmlns="http://www.w3.org/2000/svg">
<path fill-rule="evenodd" clip-rule="evenodd" d="M4.26177 0.421141C4.18694 0.485269 4.12549 0.563513 4.08092 0.651402C4.03635 0.73929 4.00954 0.8351 4.00202 0.933356C3.9945 1.03161 4.00641 1.13039 4.03708 1.22404C4.06775 1.31768 4.11658 1.40437 4.18077 1.47914L9.76177 7.99114L4.18077 14.5031C4.11286 14.5773 4.06056 14.6643 4.02697 14.7591C3.99339 14.8539 3.9792 14.9544 3.98525 15.0548C3.9913 15.1552 4.01747 15.2533 4.0622 15.3433C4.10693 15.4334 4.16931 15.5135 4.24563 15.579C4.32195 15.6444 4.41065 15.6939 4.50646 15.7243C4.60227 15.7548 4.70324 15.7657 4.80335 15.7564C4.90346 15.7471 5.00068 15.7178 5.08922 15.6701C5.17777 15.6225 5.25583 15.5576 5.31877 15.4791L11.3188 8.47914C11.4352 8.34322 11.4992 8.17013 11.4992 7.99114C11.4992 7.81215 11.4352 7.63906 11.3188 7.50314L5.31877 0.503142C5.18928 0.352326 5.00522 0.259081 4.80703 0.243893C4.60884 0.228705 4.41272 0.292817 4.26177 0.422142V0.421141Z" fill="#FF6F69"/>
<path d="M2.07639e-07 0.991037C-0.000113883 0.837672 0.0467911 0.68796 0.134393 0.562077C0.221995 0.436194 0.346082 0.340193 0.489931 0.287013C0.633779 0.233832 0.790474 0.22603 0.938894 0.264656C1.08731 0.303282 1.22033 0.38648 1.32 0.503037L7.32 7.50304C7.43646 7.63896 7.50048 7.81205 7.50048 7.99104C7.50048 8.17003 7.43646 8.34312 7.32 8.47904L1.32 15.479C1.22033 15.5956 1.08731 15.6788 0.938894 15.7174C0.790474 15.756 0.633779 15.7482 0.489931 15.6951C0.346082 15.6419 0.221995 15.5459 0.134393 15.42C0.0467911 15.2941 -0.000113883 15.1444 2.07639e-07 14.991V0.991037Z" fill="#FF6F69"/>
</svg>
