<svg width="146" height="146" viewBox="0 0 146 146" fill="none" xmlns="http://www.w3.org/2000/svg">
<g opacity="0.3">
<path d="M139.158 84.3892C138.652 80.5794 137.028 77.005 134.492 74.1178C131.955 71.2305 128.62 69.1598 124.907 68.1675C121.194 67.1752 117.27 67.3059 113.632 68.5428C109.993 69.7798 106.803 72.0677 104.464 75.1173C100.181 80.7103 93.852 84.3729 86.8688 85.2994C79.8857 86.226 72.8205 84.3406 67.2275 80.0579C61.6345 75.7753 57.9718 69.4461 57.0453 62.463C56.1187 55.4799 58.0042 48.4147 62.2868 42.8217C63.9824 40.8098 65.2518 38.4747 66.0183 35.9577C66.7848 33.4408 67.0323 30.7944 66.7459 28.179C66.4595 25.5635 65.6451 23.0334 64.3521 20.7419C63.0591 18.4505 61.3143 16.4454 59.2236 14.8481C57.1328 13.2509 54.7395 12.0947 52.1888 11.4496C49.638 10.8045 46.9828 10.684 44.3841 11.0953C41.7854 11.5066 39.2972 12.4412 37.0703 13.8424C34.8434 15.2437 32.9241 17.0824 31.4288 19.2472C20.8778 33.0264 16.2327 50.4326 18.5154 67.6366C20.7981 84.8406 29.8216 100.433 43.6008 110.984C57.38 121.535 74.7862 126.18 91.9902 123.898C109.194 121.615 124.787 112.591 135.338 98.8121C136.896 96.7797 138.036 94.4586 138.692 91.983C139.347 89.5074 139.506 86.9264 139.158 84.3892Z" fill="#FF6F69"/>
<path d="M129.161 97.4677C128.646 93.661 127.015 90.092 124.476 87.2102C121.936 84.3284 118.6 82.2628 114.888 81.2738C111.176 80.2847 107.254 80.4165 103.617 81.6523C99.9801 82.8882 96.7901 85.1729 94.4492 88.2186C92.329 90.9906 89.6836 93.3177 86.6639 95.0674C83.6443 96.817 80.3096 97.9548 76.8503 98.4157C73.391 98.8766 69.8748 98.6516 66.5025 97.7535C63.1301 96.8555 59.9676 95.302 57.1956 93.1818C54.4236 91.0616 52.0963 88.4162 50.3467 85.3966C48.5971 82.377 47.4593 79.0424 46.9984 75.583C46.5376 72.1237 46.7626 68.6075 47.6606 65.2351C48.5586 61.8628 50.112 58.7003 52.2322 55.9283C55.3093 51.8311 56.6442 46.6846 55.9465 41.6084C55.2488 36.5321 52.5751 31.9366 48.5067 28.8214C44.4384 25.7062 39.3047 24.3233 34.2221 24.9735C29.1395 25.6238 24.5192 28.2545 21.3662 32.2936C10.8152 46.0728 6.17015 63.479 8.45285 80.683C10.7356 97.887 19.759 113.48 33.5382 124.031C47.3174 134.582 64.7236 139.227 81.9276 136.944C99.1316 134.661 114.724 125.638 125.275 111.859C126.84 109.834 127.989 107.521 128.655 105.051C129.322 102.581 129.494 100.004 129.161 97.4677Z" stroke="black" stroke-miterlimit="10"/>
</g>
</svg>
